<svg xmlns="http://www.w3.org/2000/svg" width="30" height="30" viewBox="0 0 30 30" fill="none">
  <g clipPath="url(#clip0_557_838)">
    <path
      d="M21.5625 21.5625H8.17969L4.91016 3.58594C4.8719 3.37066 4.7596 3.17552 4.59269 3.03428C4.42577 2.89305 4.21474 2.81459 3.99609 2.8125H1.875"
      stroke="#6C0200"
      strokeLinecap="round"
      strokeLinejoin="round"
    />
    <path
      d="M9.375 26.25C10.6694 26.25 11.7188 25.2007 11.7188 23.9062C11.7188 22.6118 10.6694 21.5625 9.375 21.5625C8.08058 21.5625 7.03125 22.6118 7.03125 23.9062C7.03125 25.2007 8.08058 26.25 9.375 26.25Z"
      stroke="#6C0200"
      strokeLinecap="round"
      strokeLinejoin="round"
    />
    <path
      d="M21.5625 26.25C22.8569 26.25 23.9062 25.2007 23.9062 23.9062C23.9062 22.6118 22.8569 21.5625 21.5625 21.5625C20.2681 21.5625 19.2188 22.6118 19.2188 23.9062C19.2188 25.2007 20.2681 26.25 21.5625 26.25Z"
      stroke="#6C0200"
      strokeLinecap="round"
      strokeLinejoin="round"
    />
    <path
      d="M7.32422 16.875H22.043C22.4812 16.8763 22.9059 16.7232 23.2424 16.4424C23.5789 16.1616 23.8056 15.7712 23.8828 15.3398L25.3125 7.5H5.625"
      stroke="#6C0200"
      strokeLinecap="round"
      strokeLinejoin="round"
    />
  </g>
  <defs>
    <clipPath id="clip0_557_838">
      <rect width="30" height="30" fill="white" />
    </clipPath>
  </defs>
</svg>
