<svg xmlns="http://www.w3.org/2000/svg" width="30" height="30" viewBox="0 0 30 30" fill="none">
  <path
    d="M24.3301 8.45257C23.7553 7.61502 22.9859 6.93191 22.0891 6.46278C21.1924 5.99365 20.1954 5.75273 19.1851 5.76104C18.401 5.74588 17.6226 5.89841 16.9013 6.20857C16.1799 6.51872 15.532 6.97947 15.0001 7.56043C14.4676 6.98023 13.8196 6.52 13.0984 6.2099C12.3771 5.8998 11.5991 5.74684 10.8151 5.76104C9.80481 5.75273 8.80783 5.99365 7.91106 6.46278C7.01429 6.93191 6.24496 7.61502 5.67011 8.45257C5.08392 9.39154 4.75072 10.4683 4.70337 11.5767C4.65602 12.6852 4.89617 13.7868 5.40011 14.7731C6.16482 16.5041 7.22604 18.0857 8.53511 19.4455C10.0175 21.0131 11.6393 22.4405 13.3801 23.7096C13.8512 24.0539 14.4182 24.2393 15.0001 24.2393C15.582 24.2393 16.149 24.0539 16.6201 23.7096C18.3614 22.441 19.9832 21.0136 21.4651 19.4455C22.7742 18.0857 23.8354 16.5041 24.6001 14.7731C25.104 13.7868 25.3442 12.6852 25.2968 11.5767C25.2495 10.4683 24.9163 9.39154 24.3301 8.45257ZM23.3401 14.2439C22.6295 15.8211 21.6553 17.2634 20.4601 18.508C19.0357 20.0078 17.4793 21.3742 15.8101 22.5907C15.5764 22.7673 15.2922 22.8629 15.0001 22.8629C14.708 22.8629 14.4238 22.7673 14.1901 22.5907C12.5213 21.3737 10.965 20.0073 9.54011 18.508C8.33897 17.2683 7.36405 15.8249 6.66011 14.2439C6.25157 13.463 6.05066 12.5888 6.07695 11.7063C6.10324 10.8239 6.35583 9.96339 6.81011 9.20862C7.26142 8.56333 7.86207 8.03876 8.55997 7.68041C9.25787 7.32206 10.032 7.14073 10.8151 7.15217C11.4523 7.13061 12.086 7.25556 12.6681 7.51755C13.2503 7.77953 13.7656 8.17168 14.1751 8.66426C14.4012 8.88239 14.7021 9.00413 15.0151 9.00413C15.3281 9.00413 15.629 8.88239 15.8551 8.66426C16.2614 8.17576 16.7719 7.78606 17.3485 7.52424C17.9251 7.26241 18.5529 7.13523 19.1851 7.15217C19.9682 7.14073 20.7423 7.32206 21.4402 7.68041C22.1381 8.03876 22.7388 8.56333 23.1901 9.20862C23.6444 9.96339 23.897 10.8239 23.9233 11.7063C23.9495 12.5888 23.7486 13.463 23.3401 14.2439Z"
    fill="#6C0200"
  />
</svg>
