<svg
  xmlns="http://www.w3.org/2000/svg"
  width="20"
  height="20"
  viewBox="0 0 20 20"
  fill="none">
  <path
    fillRule="evenodd"
    clipRule="evenodd"
    d="M10 19.5834C10 19.5834 2.5 15.6597 2.5 7.91675C2.5 3.77466 5.85792 0.416748 10 0.416748C14.1421 0.416748 17.5 3.77466 17.5 7.91675C17.5 15.6597 10 19.5834 10 19.5834ZM10 1.25008C6.32417 1.25008 3.33333 4.24092 3.33333 7.91675C3.33333 14.0659 8.52583 17.7088 10.0012 18.6197C11.4779 17.7126 16.6667 14.0855 16.6667 7.91675C16.6667 4.24092 13.6758 1.25008 10 1.25008ZM10 11.6667C7.92875 11.6667 6.25 9.988 6.25 7.91675C6.25 5.8455 7.92875 4.16675 10 4.16675C12.0712 4.16675 13.75 5.8455 13.75 7.91675C13.75 9.988 12.0712 11.6667 10 11.6667ZM10 5.00008C8.38917 5.00008 7.08333 6.30591 7.08333 7.91675C7.08333 9.52758 8.38917 10.8334 10 10.8334C11.6108 10.8334 12.9167 9.52758 12.9167 7.91675C12.9167 6.30591 11.6108 5.00008 10 5.00008Z"
    fill="white"
  />
</svg>
