<svg
  xmlns="http://www.w3.org/2000/svg"
  width="20"
  height="20"
  viewBox="0 0 20 20"
  fill="none">
  <g clipPath="url(#clip0_557_807)">
    <path
      d="M18.75 2.91675H1.25C0.918479 2.91675 0.600537 3.04844 0.366116 3.28286C0.131696 3.51729 0 3.83523 0 4.16675L0 15.8334C0 16.1649 0.131696 16.4829 0.366116 16.7173C0.600537 16.9517 0.918479 17.0834 1.25 17.0834H18.75C19.0815 17.0834 19.3995 16.9517 19.6339 16.7173C19.8683 16.4829 20 16.1649 20 15.8334V4.16675C20 3.83523 19.8683 3.51729 19.6339 3.28286C19.3995 3.04844 19.0815 2.91675 18.75 2.91675ZM18.4833 3.75008L10 10.3084L1.51667 3.75008H18.4833ZM0.833333 15.6626V4.27508L7.25417 9.23758L0.833333 15.6626ZM1.42083 16.2501L7.91667 9.75425L9.74167 11.1667C9.81452 11.2228 9.90389 11.2532 9.99583 11.2532C10.0878 11.2532 10.1771 11.2228 10.25 11.1667L12.0833 9.75425L18.5792 16.2501H1.42083ZM19.1667 15.6626L12.7458 9.23758L19.1667 4.27508V15.6626Z"
      fill="white"
    />
  </g>
  <defs>
    <clipPath id="clip0_557_807">
      <rect width="20" height="20" fill="white" />
    </clipPath>
  </defs>
</svg>
