<svg
  xmlns="http://www.w3.org/2000/svg"
  width="12"
  height="20"
  viewBox="0 0 12 20"
  fill="none">
  <g clipPath="url(#clip0_557_760)">
    <path
      d="M10.0148 3.57513H11.9719V0.00220041H8.41547C8.11893 -0.0102675 4.50237 -0.0793965 3.56489 3.49518C3.55123 3.53275 3.25184 4.38262 3.25184 6.36851L0 6.37814V10.1257L3.25608 10.116V20H8.22962V10.1245H11.5215V6.36727H8.22962V5.18509C8.22962 4.45051 8.5392 3.57513 10.0148 3.57513ZM10.6985 7.19023V9.3015H7.40665V19.177H4.07904V9.29064L0.822962 9.30031V7.19867L4.08747 7.18904L4.07904 6.77052C4.03645 4.66712 4.33622 3.78227 4.34967 3.74009C5.15856 0.661228 8.2475 0.816315 8.38008 0.824339L11.1489 0.825162V2.75217H10.0148C8.09177 2.75217 7.40665 4.00891 7.40665 5.18509V7.19023H10.6985Z"
      fill="white"
    />
  </g>
  <defs>
    <clipPath id="clip0_557_760">
      <rect width="11.9719" height="20" fill="white" />
    </clipPath>
  </defs>
</svg>
