<svg
  xmlns="http://www.w3.org/2000/svg"
  width="22"
  height="20"
  viewBox="0 0 22 20"
  fill="none">
  <g clipPath="url(#clip0_557_762)">
    <path
      d="M18.1636 2.12769H16.1207C15.5107 2.12769 15.0145 2.62386 15.0145 3.23391V5.2768C15.0145 5.88683 15.5107 6.383 16.1207 6.383H18.1636C18.7737 6.383 19.2698 5.88683 19.2698 5.2768V3.23391C19.2698 2.62386 18.7737 2.12769 18.1636 2.12769ZM18.4188 5.2768C18.4188 5.41747 18.3045 5.53194 18.1636 5.53194H16.1207C15.9799 5.53194 15.8656 5.41747 15.8656 5.2768V3.23391C15.8656 3.09322 15.9799 2.97875 16.1207 2.97875H18.1636C18.3045 2.97875 18.4188 3.09322 18.4188 3.23391V5.2768Z"
      fill="white"
    />
    <path
      d="M17.0569 0H5.31242C2.91923 0 0.971924 1.95295 0.971924 4.35362V7.23404V8.08511V15.6466C0.971924 18.0471 2.91923 20 5.31242 20H17.0569C19.4501 20 21.3975 18.0471 21.3975 15.6466V8.08511V7.23404V4.35362C21.3975 1.95295 19.4501 0 17.0569 0ZM20.5464 15.6466C20.5464 17.5777 18.981 19.1489 17.0569 19.1489H5.31242C3.38838 19.1489 1.82299 17.5777 1.82299 15.6466V8.08511H7.02328C5.91681 9.16737 5.22724 10.674 5.22724 12.3404C5.22724 15.6254 7.8997 18.2979 11.1847 18.2979C14.4697 18.2979 17.1421 15.6254 17.1421 12.3404C17.1421 10.674 16.4526 9.16737 15.3461 8.08511H20.5464V15.6466ZM16.2911 12.3404C16.2911 15.1561 14.0005 17.4468 11.1847 17.4468C8.36885 17.4468 6.07831 15.1561 6.07831 12.3404C6.07831 9.52482 8.36885 7.23404 11.1847 7.23404C14.0005 7.23404 16.2911 9.52482 16.2911 12.3404ZM14.2374 7.23404C13.3432 6.69745 12.3013 6.38298 11.1847 6.38298C10.0681 6.38298 9.02613 6.69745 8.13196 7.23404H1.82299V4.35362C1.82299 2.42231 3.38838 0.851064 5.31242 0.851064H17.0569C18.981 0.851064 20.5464 2.42231 20.5464 4.35362V7.23404H14.2374Z"
      fill="white"
    />
    <path
      d="M7.35486 12.3405C7.35486 14.4522 9.07276 16.1703 11.1846 16.1703C13.2965 16.1703 15.0144 14.4522 15.0144 12.3405C15.0144 10.2289 13.2965 8.51074 11.1846 8.51074C9.07276 8.51074 7.35486 10.2289 7.35486 12.3405ZM14.1634 12.3405C14.1634 13.9831 12.8269 15.3193 11.1846 15.3193C9.54234 15.3193 8.20592 13.9831 8.20592 12.3405C8.20592 10.698 9.54234 9.36181 11.1846 9.36181C12.8269 9.36181 14.1634 10.698 14.1634 12.3405Z"
      fill="white"
    />
  </g>
  <defs>
    <clipPath id="clip0_557_762">
      <rect width="20.4255" height="20" fill="white" transform="translate(0.971924)" />
    </clipPath>
  </defs>
</svg>