<svg
  xmlns="http://www.w3.org/2000/svg"
  width="21"
  height="20"
  viewBox="0 0 21 20"
  fill="none">
  <g clipPath="url(#clip0_557_767)">
    <path
      d="M18.6475 18.5001C18.5642 18.5001 18.4808 18.5001 18.4808 18.4167L16.0642 17.1667C15.2308 17.5001 14.3142 17.5834 13.3975 17.5834C9.73083 17.5834 6.73083 15.1667 6.73083 12.2501C6.73083 9.33341 9.73083 6.91675 13.3975 6.91675C17.0642 6.91675 20.0642 9.33341 20.0642 12.2501C20.0642 13.6667 19.3142 15.0001 18.0642 16.0001L18.9808 17.7501C19.0642 17.9167 19.0642 18.0834 18.8975 18.2501C18.8975 18.5001 18.8142 18.5001 18.6475 18.5001ZM16.1475 16.3334C16.2308 16.3334 16.3142 16.3334 16.3142 16.4167L17.7308 17.1667L17.2308 16.2501C17.1475 16.0834 17.2308 15.8334 17.3975 15.7501C18.6475 14.9167 19.3142 13.6667 19.3142 12.4167C19.3142 9.91675 16.6475 7.91675 13.4808 7.91675C10.2308 7.91675 7.6475 9.91675 7.6475 12.4167C7.6475 14.9167 10.2308 16.9167 13.4808 16.9167C14.3975 16.9167 15.2308 16.7501 16.0642 16.5001C15.9808 16.3334 16.0642 16.3334 16.1475 16.3334Z"
      fill="white"
    />
    <path
      d="M2.39746 15.8333C2.31413 15.8333 2.14746 15.8333 2.06413 15.75C1.89746 15.5833 1.89746 15.4167 1.98079 15.25L3.14746 12.9167C1.56413 11.6667 0.647461 9.91667 0.647461 8.16667C0.647461 4.5 4.39746 1.5 8.98079 1.5C13.5641 1.5 17.3141 4.5 17.3141 8.16667V8.25C17.3141 8.41667 17.2308 8.5 17.1475 8.58333C16.9808 8.66667 16.8975 8.66667 16.7308 8.58333C15.7308 8.08333 14.5641 7.75 13.3975 7.75C10.1475 7.75 7.56413 9.75 7.56413 12.25C7.56413 12.8333 7.73079 13.4167 7.98079 14C8.06413 14.1667 8.06413 14.3333 7.98079 14.4167C7.89746 14.5833 7.73079 14.5833 7.56413 14.5833C6.89746 14.5 6.23079 14.3333 5.64746 14.1667L2.56413 15.8333C2.48079 15.8333 2.48079 15.8333 2.39746 15.8333ZM9.06413 2.33333C4.89746 2.33333 1.56413 4.91667 1.56413 8.16667C1.56413 9.83333 2.48079 11.3333 4.06413 12.5C4.23079 12.5833 4.31413 12.8333 4.23079 13L3.48079 14.5L5.39746 13.4167C5.56413 13.3333 5.64746 13.3333 5.73079 13.3333C6.14746 13.5 6.56413 13.5833 6.89746 13.6667C6.73079 13.25 6.64746 12.75 6.64746 12.3333C6.64746 9.41667 9.64746 7 13.3141 7C14.3975 7 15.3975 7.16667 16.3975 7.58333C16.1475 4.66667 12.8975 2.33333 9.06413 2.33333Z"
      fill="white"
    />
    <path
      d="M6.3975 6.58333C5.98083 6.58333 5.73083 6.25 5.73083 5.91667C5.73083 5.5 6.06417 5.25 6.3975 5.25C6.73083 5.25 7.06417 5.5 7.06417 5.91667C7.06417 6.25 6.73083 6.58333 6.3975 6.58333ZM6.3975 5.75C6.31417 5.75 6.23083 5.83333 6.23083 5.91667C6.23083 6 6.31417 6.08333 6.3975 6.08333C6.48083 6.08333 6.56417 6 6.56417 5.91667C6.48083 5.83333 6.48083 5.75 6.3975 5.75Z"
      fill="white"
    />
    <path
      d="M11.6475 6.58333C11.2308 6.58333 10.9808 6.25 10.9808 5.91667C10.9808 5.5 11.3142 5.25 11.6475 5.25C12.0642 5.25 12.3142 5.58333 12.3142 5.91667C12.3142 6.25 12.0642 6.58333 11.6475 6.58333ZM11.6475 5.75C11.5642 5.75 11.4808 5.83333 11.4808 5.91667C11.4808 6 11.5642 6.08333 11.6475 6.08333C11.7308 6.08333 11.8142 6 11.8142 5.91667C11.8142 5.83333 11.7308 5.75 11.6475 5.75Z"
      fill="white"
    />
    <path
      d="M11.3141 12.1666C10.8975 12.1666 10.6475 11.8333 10.6475 11.4999C10.6475 11.0833 10.9808 10.8333 11.3141 10.8333C11.6475 10.8333 11.9808 11.1666 11.9808 11.4999C12.0641 11.8333 11.7308 12.1666 11.3141 12.1666ZM11.3141 11.3333C11.2308 11.3333 11.1475 11.4166 11.1475 11.4999C11.1475 11.6666 11.4808 11.6666 11.4808 11.4999C11.4808 11.3333 11.3975 11.3333 11.3141 11.3333Z"
      fill="white"
    />
    <path
      d="M15.4808 12.1666C15.0641 12.1666 14.8141 11.8333 14.8141 11.4999C14.8141 11.0833 15.1474 10.8333 15.4808 10.8333C15.8974 10.8333 16.1474 11.1666 16.1474 11.4999C16.1474 11.8333 15.8974 12.1666 15.4808 12.1666ZM15.4808 11.3333C15.3974 11.3333 15.3141 11.4166 15.3141 11.4999C15.3141 11.5833 15.3974 11.6666 15.4808 11.6666C15.5641 11.6666 15.6474 11.5833 15.6474 11.4999C15.6474 11.4166 15.5641 11.3333 15.4808 11.3333Z"
      fill="white"
    />
  </g>
  <defs>
    <clipPath id="clip0_557_767">
      <rect width="20" height="20" fill="white" transform="translate(0.397461)" />
    </clipPath>
  </defs>
</svg>
