<svg
  xmlns="http://www.w3.org/2000/svg"
  width="21"
  height="20"
  viewBox="0 0 21 20"
  fill="none">
  <g clipPath="url(#clip0_557_783)">
    <path
      d="M0.390015 20L2.21835 15.2467C1.18335 13.6475 0.638348 11.7967 0.638348 9.88417C0.638348 4.43333 5.07168 0 10.5217 0C15.9708 0 20.405 4.43333 20.405 9.88417C20.405 15.3333 15.9708 19.7675 10.5217 19.7675C8.66251 19.7675 6.85418 19.245 5.27918 18.2567L0.390015 20ZM5.37001 17.4783L5.51585 17.5733C7.00918 18.5492 8.74001 19.065 10.5217 19.065C15.585 19.065 19.7025 14.9475 19.7025 9.88417C19.7025 4.82083 15.585 0.701667 10.5217 0.701667C5.45835 0.701667 1.34001 4.82083 1.34001 9.88417C1.34001 11.7192 1.88001 13.4908 2.90168 15.0083L3.00418 15.16L1.59418 18.8258L5.37001 17.4783Z"
      fill="white"
    />
    <path
      d="M13.01 14.7909C11.8158 14.7909 9.36913 13.3675 8.2033 12.2009C7.1608 11.1584 5.61414 8.68087 5.61414 7.39503C5.61414 6.11003 6.9858 4.6792 7.91497 4.6792H8.04414L8.14164 4.76253C8.3883 4.97253 9.63164 6.04087 9.8808 6.5267C10.2408 7.22837 9.3608 8.23337 8.89664 8.69337C9.10414 8.95503 9.5758 9.51503 10.2325 10.1717C10.8516 10.7917 11.6066 11.1259 11.9575 11.2592C12.2625 10.9592 12.885 10.4234 13.4541 10.4234L13.5375 10.4325L13.8833 10.5267C14.365 10.7742 15.4325 12.0175 15.6408 12.2634L15.7241 12.3617V12.49C15.7241 13.42 14.295 14.7909 13.01 14.7909ZM7.80247 5.39503C7.24747 5.52837 6.31497 6.5492 6.31497 7.39503C6.31497 8.45753 7.75747 10.7634 8.69914 11.705C9.8358 12.8417 12.0916 14.0892 13.01 14.0892C13.8558 14.0892 14.8758 13.1559 15.0075 12.6017C14.54 12.06 13.8633 11.3342 13.5933 11.1667L13.42 11.125C13.14 11.1542 12.6466 11.5317 12.315 11.8975L12.1658 12.0609L11.9533 11.9975C11.8241 11.9592 10.665 11.595 9.7358 10.6667C9.12747 10.0584 8.18914 9.02087 8.10747 8.7292L8.0483 8.52003L8.2108 8.3742C8.84247 7.8067 9.35997 7.05003 9.25497 6.8467C9.1283 6.59753 8.3658 5.8817 7.80247 5.39503Z"
      fill="white"
    />
  </g>
  <defs>
    <clipPath id="clip0_557_783">
      <rect width="20" height="20" fill="white" transform="translate(0.397461)" />
    </clipPath>
  </defs>
</svg>